<svg viewBox="0 0 30 30" fill="none" xmlns="http://www.w3.org/2000/svg">
    <path
        d="M19.2602 25.4986C20.9113 24.8389 22.3954 23.8431 23.611 22.5792C25.5677 20.5532 26.6 17.3033 26.6 17.3033C26.5663 17.6485 26.5122 17.9916 26.4382 18.331C26.3317 18.8409 26.1909 19.3435 26.0168 19.8356C25.8303 20.3866 25.6113 20.9269 25.3606 21.4537C25.0685 22.0782 24.723 22.6783 24.3277 23.2475C23.3867 24.5242 22.1917 25.6072 20.8123 26.4334C19.8522 26.9672 18.8267 27.3834 17.7598 27.6722C14.4997 28.5143 7.48278 28.3124 3.30038 23.2158C0.255971 19.5044 0.469572 15.3384 0.525707 14.5422C0.567261 13.9491 0.961665 9.40835 4.87291 5.95858C6.01657 4.95278 7.3306 4.14377 8.75784 3.56681C8.75508 3.18578 8.89283 2.8162 9.14653 2.52419C9.40023 2.23218 9.75333 2.03677 10.1426 1.97291C10.532 1.90904 10.9321 1.98089 11.2716 2.17559C11.611 2.3703 11.8676 2.67517 11.9954 3.03569C12.9606 2.96535 13.7109 2.96113 14.0855 2.99419C14.3072 3.01318 14.5638 3.04413 14.5638 3.04413C15.0528 3.09483 15.5352 3.19219 16.0044 3.33466C16.5922 3.49138 17.1531 3.73005 17.6695 4.04305C18.4437 4.52564 18.5369 4.88226 19.6065 5.52664C19.7217 5.59628 19.8172 5.65045 19.8784 5.68424L20.2969 5.8038C20.4996 5.8615 20.6074 5.89105 20.7 5.91706C20.8742 5.96632 21.1221 6.03805 21.4335 6.13585C21.3583 6.28074 21.2949 6.40174 21.2482 6.48755C21.1535 6.66482 21.0805 6.79641 21.0805 6.80132C20.7395 7.4393 20.2341 7.98191 19.613 8.37709C18.9919 8.77226 16.8909 8.51843 16.0044 8.37709C15.1178 8.23574 12.333 7.49983 9.6779 9.23319C6.48327 11.3189 6.54233 15.0789 6.56276 15.6346C6.58028 16.1257 6.74429 19.1766 9.40011 21.2686C11.3546 22.8079 13.5081 22.9063 14.2744 22.9309C14.8533 22.9492 17.1941 22.9675 19.4504 21.4537C20.4684 20.7763 21.3155 19.8868 21.9292 18.8508C22.5017 17.858 22.8261 16.75 22.8769 15.615C22.9014 14.8033 22.7781 13.9937 22.5124 13.2232C22.2499 12.5503 21.9004 11.9122 21.472 11.3238C22.3761 14.0674 21.545 16.3184 21.545 16.3184C21.3102 16.9536 21.0033 17.7492 20.2553 18.5427C19.2849 19.5712 17.9465 20.0636 17.4457 20.243C17.0624 20.3772 16.6703 20.4865 16.2719 20.5701C15.9653 20.6304 15.7322 20.6559 15.4117 20.6909L15.3971 20.6925C15.0827 20.7294 14.7661 20.7461 14.4494 20.7425C14.4494 20.7425 15.0479 20.6299 15.6217 20.4857C16.7726 20.187 17.8343 19.6308 18.7207 18.8621C19.1917 18.4478 19.9426 17.771 20.3749 16.6456C20.6543 15.9181 20.6831 15.3097 20.7094 14.7555L20.7095 14.7525C20.7468 13.8726 20.6435 12.9923 20.4033 12.1426C20.1859 11.3692 19.8592 10.6283 19.4323 9.94085L19.893 9.98729C20.6068 10.0817 21.3131 10.2228 22.0072 10.4094C22.7647 10.6133 23.3573 10.778 24.0484 11.1832C24.3626 11.3675 24.6754 11.5511 24.9962 11.8866C25.586 12.5049 25.7711 13.1873 25.8709 13.5749C26.1874 14.8011 25.9279 15.8331 25.7252 16.5998C25.3986 17.8344 24.8635 18.6834 24.4859 19.273C23.9395 20.1277 23.2776 20.9084 22.5175 21.5943C20.6519 23.2658 18.5735 23.9439 17.3779 24.2323C15.7594 24.6583 14.0604 24.7147 12.4154 24.3973C10.7704 24.0798 9.22471 23.3971 7.90055 22.4033C6.09251 21.1371 5.21622 19.7175 4.8182 18.9458C3.61239 16.6089 3.69697 14.2095 3.74871 13.0748C3.76405 12.7462 3.78156 12.5458 3.78156 12.5197C3.43011 13.6853 2.87174 16.1785 3.77349 19.0465C4.01408 19.8124 4.54699 21.4445 6.04152 23.0026C7.74963 24.7831 9.7056 25.4134 10.7802 25.7461C12.0145 26.1282 15.4591 26.9878 19.2602 25.4986Z"
        fill="white"></path>
</svg>